<?xml version="1.0" encoding="UTF-8" standalone="no"?>
<svg
   width="1024"
   height="576"
   viewBox="0 0 270.93333 152.4"
   version="1.1"
   id="svg8"
   inkscape:version="1.2.1 (9c6d41e410, 2022-07-14)"
   sodipodi:docname="2025-09-07-P.svg"
   xml:space="preserve"
   inkscape:export-filename="2025-09-07-C.png"
   inkscape:export-xdpi="96"
   inkscape:export-ydpi="96"
   xmlns:inkscape="http://www.inkscape.org/namespaces/inkscape"
   xmlns:sodipodi="http://sodipodi.sourceforge.net/DTD/sodipodi-0.dtd"
   xmlns:xlink="http://www.w3.org/1999/xlink"
   xmlns="http://www.w3.org/2000/svg"
   xmlns:svg="http://www.w3.org/2000/svg"
   xmlns:rdf="http://www.w3.org/1999/02/22-rdf-syntax-ns#"
   xmlns:cc="http://creativecommons.org/ns#"
   xmlns:dc="http://purl.org/dc/elements/1.1/"><defs
     id="defs2"><linearGradient
       inkscape:collect="always"
       id="linearGradient5970"><stop
         style="stop-color:#207c3a;stop-opacity:1;"
         offset="0"
         id="stop5966" /><stop
         style="stop-color:#e5b84d;stop-opacity:1;"
         offset="0.255914"
         id="stop5968" /><stop
         style="stop-color:#f1d44d;stop-opacity:1;"
         offset="0.47096774"
         id="stop7424" /><stop
         style="stop-color:#b8984b;stop-opacity:1;"
         offset="0.67311829"
         id="stop7426" /><stop
         style="stop-color:#d0bc4d;stop-opacity:1;"
         offset="0.95268816"
         id="stop7428" /></linearGradient><clipPath
       clipPathUnits="userSpaceOnUse"
       id="clipPath1612"><path
         id="path1614"
         style="display:inline;opacity:1;fill:#ff0000;fill-opacity:1;stroke:none;stroke-width:0.529167;stroke-dasharray:none;stroke-opacity:1;paint-order:stroke fill markers;stop-color:#000000"
         d="m 72.860667,111.92237 c -1.515362,0.13482 -1.871901,0.96025 -1.860868,2.00504 h 1.340488 l 0.52038,-0.75344 z m 37.684523,0.0326 -1.00304,0.0315 -1.04955,2.16214 1.99523,1.11207 -0.13074,0.80667 1.45676,1.15187 0.81493,-0.49351 -0.1726,-2.86701 -1.77146,0.41393 z m -27.025223,0.75603 -1.739024,0.31327 0.05437,1.01068 1.797823,0.0703 z m 17.381883,1.10071 -1.401981,1.03404 1.206131,0.43047 0.92449,0.12557 z m -35.707379,0.11575 -1.716691,0.39843 0.819586,1.03043 h 0.897105 z m -13.237954,0.0222 -0.192098,1.49959 h 3.855064 l -0.295212,-1.35593 z m 26.400974,0.26924 -0.681614,1.27692 0.42323,0.88522 1.253154,-1.08882 z m 8.062556,0.66094 v 1.10794 h 0.627869 v -1.10794 z m -16.350938,1.08572 -1.606621,0.77566 v 0.83096 l 1.606621,-0.37672 z m 23.046653,0.96377 -0.180351,1.95802 1.276927,-0.21911 -0.282154,-1.30793 z"
         sodipodi:nodetypes="ccccccccccccccccccccccccccccccccccccccccccccccccccccccc" /></clipPath><clipPath
       clipPathUnits="userSpaceOnUse"
       id="clipPath1511"><path
         style="fill:#207c3a;fill-opacity:1;stroke:none;stroke-width:0.529167;stroke-dasharray:none;stroke-opacity:1;paint-order:stroke fill markers;stop-color:#000000"
         d="m 279.16784,65.1735 -81.40576,-6.932223 -6.53949,10.143789 15.36122,44.078174 5.46873,8.54103 21.09881,-3.40476 8.40279,0.0624 -0.0239,6.91684 -4.56238,15.67898 68.72616,1.72141 z"
         id="path1513" /></clipPath><linearGradient
       inkscape:collect="always"
       xlink:href="#linearGradient5970"
       id="linearGradient3147"
       x1="162.39268"
       y1="101.57294"
       x2="157.75816"
       y2="108.52526"
       gradientUnits="userSpaceOnUse"
       gradientTransform="matrix(1.5627808,0,0,1.5627808,-92.420904,-56.014704)" /><linearGradient
       inkscape:collect="always"
       xlink:href="#linearGradient5970"
       id="linearGradient8106"
       x1="102.45065"
       y1="128.10854"
       x2="98.410561"
       y2="134.96887"
       gradientUnits="userSpaceOnUse" /><linearGradient
       inkscape:collect="always"
       xlink:href="#linearGradient5970"
       id="linearGradient14741"
       gradientUnits="userSpaceOnUse"
       x1="123.39178"
       y1="120.41977"
       x2="127.58179"
       y2="120.94722" /><linearGradient
       inkscape:collect="always"
       xlink:href="#linearGradient5970"
       id="linearGradient14743"
       gradientUnits="userSpaceOnUse"
       x1="82.08876"
       y1="128.77774"
       x2="83.733902"
       y2="124.8673" /></defs><sodipodi:namedview
     id="base"
     pagecolor="#ffffff"
     bordercolor="#666666"
     borderopacity="1.0"
     inkscape:pageopacity="0.0"
     inkscape:pageshadow="2"
     inkscape:zoom="2"
     inkscape:cx="468"
     inkscape:cy="376.5"
     inkscape:document-units="px"
     inkscape:current-layer="svg8"
     inkscape:document-rotation="0"
     showgrid="false"
     units="px"
     borderlayer="true"
     inkscape:showpageshadow="false"
     inkscape:pagecheckerboard="true"
     inkscape:window-width="1620"
     inkscape:window-height="1017"
     inkscape:window-x="-8"
     inkscape:window-y="-8"
     inkscape:window-maximized="1"
     inkscape:deskcolor="#d1d1d1" /><metadata
     id="metadata5"><rdf:RDF><cc:Work
         rdf:about=""><dc:format>image/svg+xml</dc:format><dc:type
           rdf:resource="http://purl.org/dc/dcmitype/StillImage" /></cc:Work></rdf:RDF></metadata><g
     inkscape:groupmode="layer"
     id="layer2"
     inkscape:label="レイヤー 2"
     style="display:inline;fill:#20903a;fill-opacity:1"><g
       aria-label="イ"
       transform="matrix(1,-0.15317898,-0.57841911,1.0886016,0,0)"
       id="text784"
       style="font-size:67.7333px;line-height:1;font-family:'Satsuki Gendai Mincho';-inkscape-font-specification:'Satsuki Gendai Mincho';word-spacing:0px;fill:#207c3a;stroke-width:0.264583"
       inkscape:label="イ"><path
         d="m 99.712591,57.715198 q 0,-0.396874 -1.25677,-1.190624 -1.190624,-0.859895 -1.190624,-1.521353 0,-0.661458 1.190624,-1.190625 1.190624,-0.595312 2.248959,-0.595312 2.44739,0 5.02708,1.984374 2.64583,1.918228 2.64583,3.505727 0,0.396875 -1.32292,1.852083 -6.74687,7.540621 -8.665095,9.988016 0.727604,0.330729 1.984375,0.859895 3.83646,1.653645 3.83646,3.704165 0,0.132291 -0.39688,2.315103 -0.39687,2.116665 -0.39687,5.423956 l 0.46302,16.602595 q 0,1.190622 -0.99219,2.645832 -0.99219,1.38906 -1.98437,1.38906 -1.785941,0 -2.778128,-1.65364 -0.992187,-1.65365 -0.992187,-2.976564 0,-1.322916 0.396875,-7.0776 0.46302,-5.754685 0.529166,-7.739059 0.132292,-2.05052 0.132292,-7.474476 0,-2.381248 -1.653645,-3.704164 -19.711449,16.668741 -23.680197,16.668741 -0.859895,0 -0.859895,-0.595312 0,-0.661458 2.182811,-2.381249 2.182812,-1.71979 6.879164,-5.556247 4.762497,-3.836456 8.069787,-7.276038 3.30729,-3.505727 6.945309,-8.6651 3.638019,-5.159372 3.638019,-7.342184 z"
         id="path1117" /></g><g
       aria-label="チ"
       transform="matrix(1.0734871,-0.23401157,-0.43143075,1.025592,0,0)"
       id="text784-5"
       style="font-size:54.5278px;line-height:1;font-family:'Satsuki Gendai Mincho';-inkscape-font-specification:'Satsuki Gendai Mincho';word-spacing:0px;fill:#207c3a;stroke-width:0.212999"
       inkscape:label="チ"><path
         d="m 89.318367,105.5439 q 0,-0.426 0.532498,-0.79875 0.585748,-0.37275 1.171496,-0.37275 0.585748,0 1.490994,0.26625 0.905247,0.26625 1.490995,0.26625 5.59123,0 14.27095,-1.06499 v -1.97025 q 0,-1.81049 -0.15975,-2.342988 -0.15975,-0.585748 -1.1715,-1.224746 -1.01174,-0.692247 -1.97024,-1.384495 -8.679718,1.544245 -11.07596,1.544245 -2.342991,0 -2.342991,-0.585748 0,-0.212999 0.372748,-0.479249 0.372749,-0.266249 0.692248,-0.266249 4.313234,0 12.300705,-2.66249 7.98747,-2.71574 8.30697,-4.419734 0.15975,-0.745497 0.47925,-1.011746 0.3195,-0.266249 1.49099,-0.266249 1.22475,0 3.30149,1.384495 2.12999,1.384495 2.12999,2.449491 0,1.064996 -0.74549,1.650744 -0.7455,0.585748 -1.5975,0.585748 l -2.60924,-0.319499 q -0.5325,0 -1.65074,0.425998 -1.11825,0.425999 -3.78074,1.011747 3.19499,1.970243 3.19499,4.898985 0,0.90524 -0.15975,2.39624 3.99374,-0.58575 5.80423,-1.065 1.81049,-0.5325 2.66249,-1.33124 0.90525,-0.852 1.43774,-0.852 0.58575,0 3.67424,1.86374 3.14174,1.86375 3.14174,2.98199 0,2.23649 -2.87549,2.23649 -0.69225,0 -1.70399,-0.69224 -0.3195,-0.26625 -3.14174,-0.58575 -2.82224,-0.37275 -4.36649,-0.37275 -1.54424,0 -4.89898,0.26625 -0.69225,4.20673 -2.02349,8.20047 -1.278,3.99373 -3.14174,6.70947 -1.86374,2.71575 -4.31323,4.89899 -2.4495,2.18324 -3.833991,2.87549 -1.331245,0.69224 -1.757243,0.69224 -0.905247,0 -0.905247,-0.63899 0,-0.3195 0.319499,-0.639 0.372748,-0.3195 1.490994,-1.278 1.118246,-0.95849 1.384498,-1.33124 3.78073,-3.99374 5.59123,-8.20047 1.86374,-4.20674 2.34299,-10.91621 -10.330464,1.17149 -12.353957,2.44949 -1.224745,0.79875 -2.023492,0.79875 -0.745498,0 -2.609241,-1.43775 -1.863743,-1.43774 -1.863743,-2.34299 z"
         id="path1120" /></g><g
       aria-label="ジ"
       transform="matrix(1.0743542,-0.25476588,-0.29185304,0.99999997,0,0)"
       id="text784-0"
       style="font-size:67.7333px;line-height:1;font-family:'Satsuki Gendai Mincho';-inkscape-font-specification:'Satsuki Gendai Mincho';word-spacing:0px;fill:#207c3a;stroke-width:0.264583"
       inkscape:label="ジ"><path
         d="m 116.50564,97.591305 q 1.98437,0 4.69635,1.190625 2.77813,1.190624 2.77813,3.37344 0,3.57187 -3.30729,3.57187 -0.92605,0 -2.71198,-2.05052 -1.78594,-2.05052 -3.57188,-2.77812 -2.11666,-0.59532 -2.11666,-1.918233 0,-1.389062 4.23333,-1.389062 z m -1.45521,19.380715 q 0,-3.57187 1.65365,-3.57187 0.19843,0 1.98437,0.99219 1.85208,0.99219 3.43958,0.99219 3.30729,0 14.41979,-8.40052 11.17864,-8.466664 19.90988,-19.314575 0.19844,-0.198437 0.52917,-0.926041 0.39687,-0.727604 0.7276,-0.926041 0.33073,-0.198438 0.99219,-0.198438 0.79375,0 0.79375,0.79375 0,3.042707 -3.57187,7.540621 -8.00364,9.988014 -19.18229,19.182284 -11.17864,9.12812 -15.87499,9.12812 -1.4552,0 -3.63802,-1.5875 -2.18281,-1.5875 -2.18281,-3.70417 z m 3.24115,-33.271333 q 0,-0.727604 3.0427,-0.727604 3.04271,0 6.61458,1.521354 3.63802,1.455207 3.63802,4.299477 0,2.248957 -0.66146,3.108852 -0.59531,0.859896 -1.98437,0.859896 -1.38906,0 -2.11667,-0.79375 -0.66145,-0.859895 -2.24895,-2.579686 -1.5875,-1.785937 -3.24115,-2.645832 -1.5875,-0.926041 -1.98437,-1.190624 -1.05833,-0.661458 -1.05833,-1.852083 z m 21.03436,-6.085413 q 0,-0.926042 2.05052,-0.926042 2.05052,0 5.4901,1.984374 3.50573,1.918229 3.50573,4.630206 0,2.711978 -2.57969,2.711978 -2.18281,0 -2.57968,-1.389062 -1.05834,-3.174998 -3.50573,-4.497914 -2.38125,-1.389062 -2.38125,-2.51354 z m 6.74687,-4.299477 q 0,-0.859896 1.98438,-0.859896 2.05052,0 5.4901,1.852083 3.50573,1.852082 3.50573,4.630206 0,2.778123 -2.57969,2.778123 -2.05052,0 -2.57969,-1.455207 -0.99218,-3.174999 -3.43958,-4.497915 -2.38125,-1.322916 -2.38125,-2.447394 z"
         id="path1123" /></g><g
       aria-label="ク"
       transform="matrix(1.0123875,-0.07428796,-0.44571224,1.02047,0,0)"
       id="text784-53"
       style="font-size:67.7333px;line-height:1;font-family:'Satsuki Gendai Mincho';-inkscape-font-specification:'Satsuki Gendai Mincho';word-spacing:0px;fill:#207c3a;stroke-width:0.264583"
       inkscape:label="ク"><path
         d="m 146.06441,118.44046 q 0,-0.79375 0.8599,-1.25677 11.70781,-5.82083 21.49739,-14.02291 5.42395,-4.431772 8.6651,-8.268229 3.24114,-3.902602 5.15937,-8.135933 0.19843,-0.396875 1.05833,-3.108853 h -5.88698 l -4.16718,0.330729 q -3.37344,3.836457 -8.86354,8.731246 l -2.38125,2.116665 q -2.3151,2.182812 -5.15937,3.902603 -2.84427,1.719792 -3.9026,1.719792 -1.05833,0 -1.05833,-0.463022 0,-0.529167 4.43176,-5.093227 4.43177,-4.56406 8.92969,-9.591141 4.56406,-5.093226 4.56406,-7.0776 0,-1.058333 -1.65365,-2.182812 -1.65364,-1.190624 -1.65364,-1.190624 0,-1.852083 4.03489,-1.852083 2.24896,0 4.03489,1.455208 1.85209,1.389062 1.85209,2.248957 0,2.447395 -0.92604,3.968748 6.48228,0.727604 8.40051,-0.264583 2.24896,-2.182811 3.43958,-2.182811 1.19063,0 3.96875,2.447394 2.84427,2.381249 2.84427,3.836457 0,0.46302 -2.57968,1.785936 -2.51355,1.322916 -3.24115,2.711978 -4.43177,7.209892 -12.50156,14.353635 -8.06978,7.14375 -16.00728,11.37708 -7.93749,4.16719 -12.63385,4.16719 -1.12448,0 -1.12448,-0.46302 z"
         id="path1126" /></g><g
       aria-label="の"
       transform="matrix(0.99512924,0.03297059,-0.59777239,0.98508923,0,0)"
       id="text784-7"
       style="font-size:28.2222px;line-height:1;font-family:'Satsuki Gendai Mincho';-inkscape-font-specification:'Satsuki Gendai Mincho';word-spacing:0px;fill:#207c3a;stroke-width:0.264583"
       inkscape:label="の"><path
         d="m 199.5066,96.440916 q 0,-0.275608 0.46853,-0.413411 0.46854,-0.165365 0.88195,-0.165365 0.41341,0 1.21267,-0.165364 3.94119,-0.881944 6.47678,-3.527775 0.96462,-0.992187 1.57096,-2.508028 0.63389,-1.543402 0.63389,-3.307289 0,-1.791448 -0.60633,-3.445093 -0.57878,-1.681205 -1.51584,-2.563149 -2.45291,-2.259981 -5.70508,-2.397785 0.27561,1.901692 0.27561,4.409719 0,2.508028 -1.29535,5.319224 -1.2678,2.783635 -3.08681,4.657765 -1.79145,1.84657 -3.58289,1.84657 -1.12999,0 -1.62609,-0.606337 -0.7717,-0.909504 -1.29535,-2.563149 -0.52366,-1.681205 -0.52366,-3.279728 0,-3.086803 1.87413,-6.090924 0.93707,-1.543402 1.95682,-2.370224 2.86631,-2.342663 7.55164,-2.342663 1.5434,0 3.50021,0.689019 1.98438,0.661457 2.89388,1.460719 3.61046,3.224607 3.61046,7.303597 0,2.23242 -0.9095,4.244354 -0.88195,2.011934 -2.37023,3.224607 -1.46072,1.185112 -4.02387,2.122177 -2.53558,0.909505 -4.96093,0.909505 -1.4056,0 -1.4056,-0.440972 z m -4.79557,-13.863054 q -0.38585,0.716579 -0.79926,2.177299 -0.38585,1.460719 -0.38585,2.508027 0,1.047309 0.41341,2.425346 0.41341,1.378037 0.99219,1.378037 0.7717,0 1.95681,-0.826822 2.61827,-1.901692 4.13411,-5.870439 0.82682,-2.204859 0.82682,-4.575083 0,-1.12999 -0.11024,-1.819009 -2.01193,0.275608 -3.2246,0.909505 -2.34267,1.240233 -3.80339,3.693139 z"
         id="path1129" /></g><g
       aria-label="葉"
       transform="matrix(1.0174754,-0.20183363,-0.43136303,1.068393,0,0)"
       id="text784-3"
       clip-path="url(#clipPath1511)"
       style="font-size:79.0513px;line-height:1;font-family:'Satsuki Gendai Mincho';-inkscape-font-specification:'Satsuki Gendai Mincho';word-spacing:0px;display:inline;fill:#207c3a;stroke-width:0.308794"
       inkscape:label="葉"><path
         d="m 209.34073,135.32778 q 0,0.61759 0.46319,0.61759 0.46319,0.0772 1.92996,-0.30879 16.36609,-4.55471 26.01591,-12.73776 2.77915,-2.31596 3.39674,-1.69837 0.69478,0.92639 0.30879,7.56546 -0.38599,6.63907 -0.30879,7.48826 0.15439,0.84918 1.15797,1.15798 1.92997,0.46319 4.63192,-1.00359 1.08078,-0.54039 1.15797,-1.23517 0.1544,-0.69479 -0.15439,-7.71986 -0.3088,-7.02506 0.15439,-7.95144 0.46319,-0.92639 2.54756,1.00358 0.30879,0.38599 1.54397,1.54397 8.72343,8.72343 21.15239,13.35534 1.38958,0.54039 1.62117,0.46319 0.3088,0 0.61759,-0.77198 1.08078,-2.85635 3.47394,-3.93713 0.61758,-0.30879 0.84918,-0.46319 0.30879,-0.15439 0.1544,-0.38599 -0.0772,-0.30879 -1.62117,-0.61759 -8.26025,-1.85276 -17.06088,-5.71269 -8.72343,-3.85993 -8.72343,-5.63549 0,-0.54039 0.92638,-0.69479 0.92638,-0.2316 12.66056,-0.30879 l 12.66056,-0.0772 q 0.84918,-0.84919 0.84918,-1.00358 0,-0.1544 -2.62475,-2.39316 -2.62475,-2.31595 -3.39673,-2.85634 -0.69479,-0.54039 -1.00358,-0.3088 -0.3088,0.2316 -1.69837,2.00716 -1.38958,1.69837 -2.47035,2.31596 l -9.64982,0.0772 q -7.95145,0 -9.26383,-0.0772 -1.31237,-0.1544 -1.77556,-1.08078 -0.46319,-0.92638 -0.0772,-3.01074 0.46319,-2.16156 1.31237,-2.16156 0.1544,0 0.61759,-0.54039 0.54039,-0.54039 2.00716,-0.61759 1.46678,-0.1544 11.65698,-0.23159 l 12.19737,-0.0772 q 0.92638,-0.92639 0.54039,-1.46678 -0.38599,-0.54039 -2.08436,-1.85276 -1.62117,-1.38957 -2.54755,-2.08436 -0.92638,-0.77199 -1.38957,-0.84918 -0.4632,-0.1544 -1.00358,0.54038 -0.4632,0.61759 -1.31238,1.77557 -0.77199,1.08078 -2.16156,1.46677 -1.31237,0.386 -8.33744,0.386 -6.94787,-0.0772 -9.26382,-0.0772 h -17.36968 q -1.23517,-0.84919 -1.38957,-1.62117 -0.1544,-0.84919 -0.1544,-3.859928 v -4.24592 q 0,-4.70911 0.54039,-5.403897 0.61759,-0.694787 2.54756,-0.694787 2.00716,0 4.7863,0 2.77915,-0.0772 3.39674,1.235176 0.69479,1.312376 -0.0772,9.649816 l -0.1544,1.62117 0.54039,0.46319 q 0.84919,0.84919 3.31954,0.0772 2.54755,-0.77199 2.54755,-2.00716 0,-1.235178 0.84919,-1.543972 0.84918,-0.308794 4.8635,-0.308794 h 4.40032 q 1.00358,1.003581 1.08078,2.007166 0.1544,0.92638 0.38599,1.31237 0.3088,0.30879 1.08078,0.30879 0.84919,0 2.31596,-0.61758 1.54397,-0.61759 2.62475,-1.698371 l -0.2316,-4.323118 q -0.15439,-4.091523 -0.0772,-4.631912 0.1544,-0.54039 1.15798,-1.543971 h 6.02149 q 5.0951,0 6.40748,-0.154397 1.31237,-0.231596 1.31237,-1.003581 0,-0.231596 -3.08794,-2.856346 -3.08794,-2.62475 -3.31954,-2.547552 -0.15439,0 -1.46677,1.775567 -3.16514,4.014324 -6.17588,2.393154 -1.00358,-0.617588 -0.92638,-2.62475 0.0772,-2.007162 1.00358,-2.238757 0.92638,-0.308795 1.15798,-0.926383 0.23159,-0.617588 0,-0.694787 l -2.47036,-0.308794 q -2.62475,-0.231595 -3.31953,-0.617588 -0.69479,-0.463191 -0.84919,-2.084361 -0.1544,-1.698367 1.54397,-2.933544 h 8.33744 q 7.17947,0 8.72344,-0.154397 1.54397,-0.231596 1.54397,-1.003581 0,-0.154397 -2.85635,-2.701949 -2.85634,-2.62475 -3.39673,-2.933544 -0.54039,-0.308794 -2.08436,1.775566 -1.54397,2.084361 -2.39316,2.470353 -0.84918,0.308795 -4.24592,0.308795 -3.31953,0 -4.09152,-0.308795 -0.77198,-0.308794 -1.08078,-2.238757 -0.23159,-1.929963 1.54397,-3.010743 1.77557,-1.157978 0.92638,-1.466772 -0.84918,-0.308794 -4.7863,-0.771985 -3.85993,-0.463192 -4.24592,-0.308795 -0.386,0.0772 0,1.929964 1.23517,5.558294 -0.4632,6.253081 -0.54039,0.231596 -7.95144,0.0772 -7.33387,-0.154397 -7.87426,-0.463192 -1.15797,-0.617588 -1.00358,-2.62475 0.1544,-2.08436 1.46678,-2.62475 0.54039,-0.231596 0.84918,-0.771985 0.38599,-0.54039 0.1544,-0.694787 -0.1544,-0.231596 -4.70911,-0.771985 -4.47752,-0.54039 -4.63192,-0.385993 -0.0772,0.0772 0.3088,2.007162 1.15798,5.403897 -0.3088,6.175883 -0.69478,0.308794 -6.94786,0 -6.25309,-0.308795 -8.80064,-0.617589 -2.54755,-0.385992 -2.93354,-0.385992 -0.3088,-0.0772 -0.46319,0.154397 -0.1544,0.154397 0.61759,1.775566 l 1.00358,1.698368 h 0.69478 q 1.08078,0 2.93355,-0.154397 1.92996,-0.231596 7.71985,-0.231596 5.86709,0 6.25308,0.231596 0.92639,0.463191 0.92639,2.701948 0.0772,2.161559 -0.69479,2.624751 -0.77199,0.385992 -2.93355,0.154397 -2.08436,-0.308794 -2.31595,0.0772 -0.1544,0.308794 -0.1544,2.238758 0,1.929963 -0.23159,2.701949 -0.2316,0.771985 -0.77199,1.389573 -0.54039,0.54039 -2.62475,0.54039 -2.08436,0 -5.78989,-0.54039 -3.62833,-0.617588 -3.78273,-0.308794 -0.0772,0.231596 0.69479,1.775566 l 0.92638,1.698368 h 0.61759 q 0.61759,0 2.77915,-0.308794 5.2495,-0.463191 6.33028,-0.0772 1.77556,0.694787 1.85276,4.78631 0,2.08436 -0.46319,8.800634 -0.38599,6.63907 -0.30879,7.41106 0.15439,0.69478 0.84918,1.00358 1.23518,0.69479 3.47393,-0.2316 2.23876,-0.92638 2.23876,-2.00716 0,-1.15798 1.08078,-1.46677 1.08078,-0.30879 5.4811,-0.30879 4.40031,0 5.0951,0.46319 0.77199,0.46319 0.77199,3.55113 v 0.61759 q 0,2.54755 -0.92639,3.01074 -0.92638,0.38599 -4.24592,0.38599 -3.31953,-0.0772 -3.78272,-0.0772 -17.36968,-0.23159 -22.23318,-1.15797 -0.92639,-0.1544 -1.00358,0.0772 0,0.2316 0.77198,1.85277 0.77199,1.54397 1.08078,1.69837 0.30879,0.15439 2.31596,-0.0772 2.08436,-0.3088 10.73059,-0.3088 8.64624,0 9.03223,0.3088 1.08078,1.00358 -2.23876,4.09152 -3.24233,3.08794 -8.95503,6.63908 -5.63549,3.55113 -9.26382,5.0179 -3.55113,1.54397 -3.62833,1.85276 z m 20.8436,-48.403477 q -1.00358,-0.694787 -0.92638,-2.238757 0.0772,-1.621169 0.92638,-2.084361 0.84919,-0.463191 1.38958,-1.157978 0.84918,-0.694787 2.16156,-1.157978 1.38957,-0.540389 1.54397,-0.926382 0.15439,-0.463191 0.15439,-1.235177 v -1.003581 q 0,-1.775566 0.77199,-2.161559 0.77198,-0.463191 4.63191,-0.463191 h 7.56546 q 3.78273,0 4.40031,0.463191 0.69479,0.463192 0.69479,1.62117 v 1.389573 q 0,2.084361 0.2316,2.238758 0.30879,0.154397 1.85276,0.154397 1.62117,0 2.00716,0.54039 0.386,0.463191 0.386,3.087941 0,2.62475 -0.77199,3.087941 -0.69479,0.463192 -4.94071,0.385993 -4.16872,-0.154397 -5.0179,-0.617588 -0.77199,-0.463191 -0.77199,-2.547552 0,-2.08436 1.15798,-2.856346 1.69837,-1.080779 1.23518,-1.389573 -0.46319,-0.385993 -4.78631,-0.849184 -4.24592,-0.54039 -4.40032,-0.231596 -0.15439,0.231596 0.0772,1.08078 1.31238,5.78989 0.2316,6.870669 l -0.61759,0.54039 h -1.62117 q -7.10227,-0.154397 -7.56546,-0.54039 z m 17.13808,8.95503 q -0.77199,-0.385992 -0.92638,-2.779147 -0.1544,-2.470353 0.46319,-3.087941 0.69478,-0.617589 5.2495,-0.694787 h 4.63191 l 0.54039,0.463191 q 1.00358,0.849184 0.84918,3.319537 -0.15439,2.393155 -1.23517,2.933544 -0.54039,0.231596 -4.70911,0.231596 -4.09153,0 -4.86351,-0.385993 z"
         id="path1132" /></g><path
       style="display:inline;fill:#207c3a;fill-opacity:1;stroke-width:0.132292;stop-color:#000000"
       d="m 187.50036,77.8327 8.32386,-1.522721 -1.68114,4.154746 C 146.40755,115.07783 85.16621,135.24623 72.166914,132.4662 55.180664,128.83351 74.177336,115.71145 98.888889,98.763556 70.344265,118.35554 63.077372,128.79741 72.438709,130.10156 c 10.249129,1.42783 24.706606,-3.5875 45.514951,-11.4185 19.16522,-7.21263 42.19448,-18.3568 69.5467,-40.85036 z"
       id="path1084"
       sodipodi:nodetypes="cccscssc"
       inkscape:label="path1084k" /><path
       style="display:inline;fill:#207c3a;fill-opacity:1;stroke-width:0.158473;stop-color:#000000"
       d="m 234.03282,45.171052 c 12.54253,-3.405914 19.3049,-14.942346 14.38238,-19.533521 -7.88069,1.588954 -16.48144,1.998215 -19.51981,9.653714 -12.4242,-10.489963 -32.0239,-1.972377 -46.76485,3.525792 1.5737,2.411046 1.28255,5.267318 7.41898,6.589022 -25.86814,0.370754 -27.70199,6.906776 -44.35502,15.92799 14.36337,0.535269 18.7431,9.781461 37.34843,3.567331 -3.36074,3.36537 -5.76928,7.333335 -7.22564,11.903893 11.91724,-1.67801 28.3524,-2.93369 44.1794,-15.360935 2.93104,6.888142 10.47811,6.528872 18.4846,5.448321 1.82622,-7.927436 7.88216,-16.779435 -3.94847,-21.721607 z"
       id="path4401"
       sodipodi:nodetypes="ccccccccccc" /></g><g
     inkscape:groupmode="layer"
     id="layer3"
     inkscape:label="レイヤー 3"><path
       style="display:inline;fill:#207c3a;fill-opacity:1;stroke-width:0.0475196;paint-order:stroke fill markers;stop-color:#000000"
       d="m 81.145493,111.37223 c -0.24453,-0.17266 -0.446386,-0.18552 -0.635682,-0.0408 0.256966,-0.44422 0.02698,-0.77053 -0.194717,-1.31218 -0.58219,0.22806 -0.516321,0.89044 -0.50638,1.2599 -0.12176,-0.25516 -0.123502,-0.63422 -0.292781,-0.7924 -0.330084,-0.30844 -0.87352,-0.26774 -1.218019,-0.26837 0.09524,0.31721 0.115708,0.87975 0.32143,1.14047 0.179485,0.22748 0.531438,0.16487 0.790149,0.28981 -0.686507,-0.0516 -1.098077,0.0547 -1.314097,0.28498 0.336545,0.34345 0.895604,0.59235 1.263885,0.53366 -0.0074,0.22519 -0.08782,0.45602 0.144977,0.71212 0.418658,-0.25896 0.651206,-0.59174 0.742909,-1.10506 0.438254,-0.0983 0.708259,-0.29637 0.898326,-0.70208 z"
       id="path442-2"
       sodipodi:nodetypes="ccccscsccccccc" /><path
       style="display:inline;fill:#207c3a;fill-opacity:1;stroke-width:0.529167;paint-order:stroke fill markers;stop-color:#000000"
       d="m 73.425687,118.49142 c -1.157123,1.03396 -0.880736,2.06791 -0.531749,3.10187 0.749947,-0.65216 1.285838,-1.44702 1.329372,-2.57012 0,0 -0.369556,1.44158 0,1.99406 0.408724,0.61104 2.038371,0.84194 2.038371,0.84194 0,0 0.786579,-1.51732 0.443125,-2.17131 -0.350791,-0.66796 -2.082684,-0.88625 -2.082684,-0.88625 1.166894,0.35358 2.333787,-0.33352 3.500681,-0.75331 -1.344143,-0.61654 -2.688287,-1.28549 -4.03243,-0.17725 z"
       id="path11859"
       sodipodi:nodetypes="cccscscccc" /><path
       style="display:inline;fill:#207c3a;fill-opacity:1;stroke-width:0.346423;paint-order:stroke fill markers;stop-color:#000000"
       d="m 69.635545,123.18956 c 1.22677,-1.01197 0.991191,-2.02118 1.368384,-2.86534 -0.810324,0.31651 -1.705948,0.48295 -1.859859,1.95456 0.291122,-1.71263 -0.345578,-2.49271 -1.360898,-2.90512 -0.49434,1.04185 -0.07666,2.50046 0.479631,3.34452 0,0 -0.701806,-1.65901 -1.461388,-1.93651 -0.941973,-0.34415 -2.933593,0.66763 -2.933593,0.66763 0,0 0.710315,2.24783 1.680365,2.59869 0.771697,0.27911 2.34995,-0.73387 2.34995,-0.73387 -0.979553,0.53285 -1.348337,1.22148 -2.056273,2.2343 1.477052,0.055 2.207652,-0.51003 2.819945,-1.49298 0.190071,0.63334 0.228314,1.36281 1.189966,1.50774 0.263623,-0.83647 0.143374,-1.62118 -0.21623,-2.37362 z"
       id="path10001-3"
       sodipodi:nodetypes="cccccscsccccc" /><path
       id="path442-2-0"
       style="display:inline;fill:#207c3a;fill-opacity:1;stroke-width:0.122992;paint-order:stroke fill markers;stop-color:#000000"
       d="m 74.729805,121.56881 c -0.595915,0.61621 -1.840228,1.37405 -2.16886,2.16834 -0.286716,0.693 0.299652,1.40854 0.344682,2.15077 -0.751589,-1.61561 -1.512171,-2.4104 -2.305286,-2.60707 -0.35,1.19434 -0.205026,2.77153 0.393258,3.52898 -0.517939,0.26799 -1.140796,0.37817 -1.424719,1.22783 1.015187,0.56302 1.973291,0.69949 3.100069,0.38499 l -0.862051,2.33278 0.643976,0.23192 0.769462,-2.44171 c 0.709051,0.70045 1.455468,0.98921 2.504757,0.91312 0.08066,-0.77056 -0.145489,-1.24273 -0.711584,-1.48724 1.328124,0.0185 1.774333,-0.91347 2.717146,-2.0991 -1.251264,-1.02632 -2.663804,-0.0401 -3.485575,0.44958 0.422244,-0.59764 1.276183,-1.08027 1.419035,-1.66294 0.279106,-1.13547 -0.500079,-2.31149 -0.93431,-3.09025 z"
       sodipodi:nodetypes="cscccccccccccccc" /><path
       id="path4871-6"
       style="display:inline;fill:#207c3a;fill-opacity:1;stroke-width:0.525342;paint-order:stroke fill markers;stop-color:#000000"
       d="m 57.996421,135.61363 c 1.804971,-2.19592 1.800964,-4.01206 1.748041,-5.81776 4.642316,2.58462 5.619832,1.48106 9.597058,-0.42428 l -1.699054,-1.21619 c -0.13524,0.5991 -2.780707,3.59909 -7.082032,1.08461 2.668202,-1.0125 2.668989,-2.51255 3.232129,-3.90979 -1.737849,-0.0394 -3.597877,-0.29494 -4.419945,1.28597 1.206846,-3.2776 0.02201,-5.44158 -2.715176,-7.43527 -0.415902,2.11841 -0.540698,4.17581 0.04676,6.08347 -0.561921,-1.11447 -1.352997,-2.42087 -2.170917,-2.90784 -1.979404,-1.17855 -7.116547,-0.55626 -7.116547,-0.55626 0,0 0.82129,4.70983 2.602171,5.92923 0.805005,0.5512 2.344389,0.55729 3.545443,0.45546 -1.729305,0.47947 -3.291979,1.68647 -4.758169,3.3145 3.934056,1.25571 6.580024,0.64771 8.033165,-1.68694 -0.821181,2.51959 0.0677,4.20947 1.156997,5.80111 z"
       sodipodi:nodetypes="cccccccccccsccccc" /><path
       style="display:inline;fill:url(#linearGradient14743);fill-opacity:1;stroke-width:0.529167;paint-order:stroke fill markers;stop-color:#000000"
       d="m 83.759074,124.82079 c -1.764851,-0.68033 -2.96182,2.21219 -1.847557,3.33074 l -0.841939,2.57012 0.620377,0.0443 1.129966,-2.30425 c 2.134817,-0.80073 2.603634,-3.35202 0.939153,-3.64091 z"
       id="path14727"
       sodipodi:nodetypes="cccccc" /><path
       style="display:inline;fill:#207c3a;fill-opacity:1;stroke-width:0.529167;paint-order:stroke fill markers;stop-color:#000000"
       d="m 79.827953,130.25922 c -2.264488,0.87929 -2.40684,2.4559 -3.358724,3.49926 1.326987,-0.0704 2.705708,0.11776 3.634698,-1.94268 -1.243575,2.34418 -0.694301,3.78085 0.580405,4.86589 1.216588,-1.27388 1.310379,-3.58957 0.908405,-5.0805 0,0 0.222164,2.74261 1.190675,3.50936 1.201069,0.95087 4.574709,0.43867 4.574709,0.43867 0,0 0.04789,-3.60064 -1.190678,-4.57471 -0.985313,-0.77489 -3.760033,-0.0627 -3.760033,-0.0627 1.676169,-0.30298 2.541266,-1.12481 4.05371,-2.25417 -2.115775,-0.78808 -3.446305,-0.3191 -4.805717,0.81282 0.02809,-1.00969 0.322472,-2.08596 -1.002675,-2.75735 -0.78349,1.08668 -0.985437,2.2824 -0.824775,3.54611 z"
       id="path10001"
       sodipodi:nodetypes="cccccscsccccc" /><path
       style="display:inline;fill:#207c3a;fill-opacity:1;stroke-width:0.312969;paint-order:stroke fill markers;stop-color:#000000"
       d="m 92.14068,128.37813 c 2.695168,1.45133 3.661894,0.84475 5.148209,0.8568 -0.629971,-1.0715 -1.430598,-1.98655 -2.70872,-2.46381 2.903574,-0.31335 2.938707,-2.75451 3.830976,-5.55885 -1.614313,0.42015 -2.639502,-0.0684 -5.043924,3.23031 0,0 2.304044,-2.4589 2.189776,-3.96416 -0.141456,-1.86348 -3.420658,-4.44212 -3.420658,-4.44212 0,0 -2.956891,2.824 -3.018525,4.67903 -0.04717,1.41973 2.067371,3.72646 2.067371,3.72646 -1.052294,-1.65397 -2.374635,-2.95759 -5.035398,-2.91666 -0.107482,2.88298 1.055123,4.99208 3.560219,5.0113 -1.303984,0.48213 -2.526075,0.96496 -3.050361,2.16709 1.537393,-0.0842 3.150894,0.81615 5.481024,-0.32559 z"
       id="path1663-5"
       sodipodi:nodetypes="cccccscsccccc" /><path
       style="display:inline;fill:url(#linearGradient8106);fill-opacity:1;stroke-width:0.529167;paint-order:stroke fill markers;stop-color:#000000"
       d="m 103.6516,125.58513 1.19068,-0.25067 -2.80783,4.03506 c 2.5333,2.14126 -0.0377,7.99182 -3.390939,5.50256 -3.17733,-1.22542 -0.94304,-7.06775 2.398709,-5.91164 z"
       id="path14729"
       sodipodi:nodetypes="cccccc" /><path
       style="display:inline;fill:#207c3a;fill-opacity:1;stroke-width:0.232858;paint-order:stroke fill markers;stop-color:#000000"
       d="m 103.5707,121.04531 c -0.41662,1.40642 -0.15877,2.36345 0.81041,3.01438 -2.46579,-0.4938 -3.61842,1.08683 -5.783418,2.96772 1.974178,2.34316 4.944648,0.99554 6.643648,0.36824 -0.99266,0.96644 -2.74902,1.57098 -3.21698,2.60524 -0.91224,2.01704 0.13151,4.47508 0.67049,6.07485 1.32231,-0.94098 3.90084,-1.92083 4.78725,-3.28569 0.77334,-1.19079 -0.0708,-2.7257 0.10204,-4.12288 0.84029,3.26723 1.98136,5.00997 3.38973,5.6503 1.06452,-2.10212 1.34026,-5.08819 0.48855,-6.70503 1.05679,-0.31976 2.25448,-0.30976 3.07685,-1.79301 -1.86037,-1.5356 -3.77056,-2.09139 -6.29709,-1.70952 -1.14544,-1.87931 -2.48952,-2.82078 -4.67139,-3.06467 z"
       id="path442-2-6"
       sodipodi:nodetypes="ccccscsccccccc" /><path
       style="display:inline;fill:url(#linearGradient14741);fill-opacity:1;stroke-width:0.529167;paint-order:stroke fill markers;stop-color:#000000"
       d="m 120.44642,119.63174 0.25067,0.87734 3.32136,0.50134 c -0.92194,1.07872 4.20686,2.32415 3.8227,0.188 1.2189,-2.61598 -3.73106,-2.82858 -3.76003,-0.94 z"
       id="path14731"
       sodipodi:nodetypes="cccccc" /><path
       id="path4871-8"
       style="display:inline;fill:#207c3a;fill-opacity:1;stroke-width:0.529167;paint-order:stroke fill markers;stop-color:#000000"
       d="m 111.67764,125.66625 c 3.38852,-2.24754 3.17898,-3.9866 3.61422,-5.33646 2.05696,-0.37406 3.4812,-1.76868 4.34156,-3.50013 -1.69976,-0.42035 -3.47216,-1.0799 -4.62743,0.29374 1.90603,-2.9571 1.21649,-5.34455 -1.03669,-7.90545 -0.87396,1.9912 -1.44837,3.98636 -1.28965,5.9907 -0.30764,-1.21901 -0.79856,-2.67694 -1.49568,-3.33525 -1.68712,-1.59317 -6.87386,-2.10934 -6.87386,-2.10934 0,0 -0.22671,4.81035 1.25627,6.40012 0.67034,0.71861 2.18233,1.06259 3.38536,1.22618 -1.80527,0.0917 -3.60646,0.93514 -5.40526,2.21364 3.59168,2.0982 6.76946,2.87907 8.71058,0.90301 -1.36048,2.29662 -1.30162,3.35524 -0.57942,5.15924 z"
       sodipodi:nodetypes="ccccccscscccc" /><path
       id="path4871"
       style="display:inline;fill:#207c3a;fill-opacity:1;stroke-width:0.529167;paint-order:stroke fill markers;stop-color:#000000"
       d="M 126.08636 116.99958 C 123.48476 118.19526 122.68938 119.84267 121.94294 121.50214 L 120.44639 119.5064 L 119.6945 119.94513 L 120.95902 121.64684 C 118.09585 121.39048 117.4352 122.74931 116.31021 123.76764 C 117.86758 124.56794 119.44057 125.61776 120.88099 124.54692 C 118.34548 126.98588 118.46697 129.46795 120.07019 132.47873 C 121.37901 130.74216 122.39724 128.93279 122.70414 126.94574 C 122.72292 128.20282 122.86507 129.73461 123.39195 130.5357 C 124.66706 132.47444 129.59571 134.17062 129.59571 134.17062 C 129.59571 134.17062 130.92358 129.54162 129.84634 127.65319 C 129.35941 126.79958 127.9672 126.11681 126.83412 125.6807 C 128.61203 126.00702 130.559 125.6008 132.60379 124.77068 C 129.5915 121.90208 126.92643 121.28893 124.58258 122.76512 C 126.43516 120.84332 126.37393 118.92137 126.08636 116.99958 z " /><path
       style="display:inline;fill:#207c3a;fill-opacity:1;stroke-width:0.529167;paint-order:stroke fill markers;stop-color:#000000"
       d="m 145.94102,106.14846 c -3.15908,-4.09975 -5.06984,-3.83035 -7.35586,-4.87436 0.23321,2.08864 0.83779,4.0535 2.48149,5.67198 -4.69826,-1.51947 -6.43666,2.22455 -9.74873,5.93787 2.78178,0.46517 4.02721,1.92668 10.01461,-1.50662 0,0 -5.25302,2.20609 -6.11512,4.60849 -1.06727,2.97415 2.21562,9.21698 2.21562,9.21698 0,0 6.51266,-2.31925 7.88761,-5.14024 1.05229,-2.159 -0.62037,-7.17861 -0.62037,-7.17861 0.48328,3.27912 1.62512,6.20374 5.76061,7.97624 2.1549,-4.37615 1.81534,-8.43392 -2.03837,-10.19186 2.34551,0.15537 4.56508,0.2532 6.20374,-1.24075 -2.43131,-0.93054 -4.30078,-3.43366 -8.68523,-3.27912 z"
       id="path1663"
       sodipodi:nodetypes="cccccscsccccc" /><path
       style="display:inline;fill:url(#linearGradient3147);fill-opacity:1;stroke-width:0.826972;paint-order:stroke fill markers;stop-color:#000000"
       d="m 162.29964,99.532003 1.9222,0.405662 -3.49467,4.977625 c 4.6506,2.4105 -2.18595,12.78768 -7.03398,8.00467 -5.34713,-1.95335 0.43676,-12.51466 5.26561,-9.24276 z"
       id="path14733"
       sodipodi:nodetypes="cccccc" /><path
       id="path442"
       style="display:inline;fill:#207c3a;fill-opacity:1;stroke-width:0.529167;paint-order:stroke fill markers;stop-color:#000000"
       d="m 178.85807,97.770774 c -4.61392,1.992916 -6.80673,5.456276 -8.69276,10.173536 -1.56504,-4.97677 -3.76713,-6.44974 -5.76631,-9.038721 l -1.59525,0.797367 c 2.00866,2.852204 5.22107,4.768144 5.31906,9.106424 -4.56748,0.4894 -7.66779,2.26135 -10.27793,6.20789 2.41388,2.29889 4.61689,2.76764 6.93704,1.48104 -3.55152,4.47722 -1.54764,8.44528 0.016,14.77223 6.78396,-1.56794 7.13357,-8.97202 7.62331,-13.05864 0.92744,3.00863 0.33162,7.1878 1.93993,9.20513 3.13608,3.93361 9.18885,4.36664 12.98319,4.93251 -0.5346,-3.64919 0.15258,-9.87983 -1.69085,-13.08602 -1.60831,-2.79725 -5.58713,-2.67844 -8.23464,-4.47466 7.47947,1.68263 12.18627,1.1783 14.93966,-1.00769 -3.15043,-4.32981 -8.90608,-7.9789 -13.05864,-7.92975 0.44718,-2.4689 1.70735,-4.88142 -0.44183,-8.080646 z"
       sodipodi:nodetypes="cccccccccscscccc" /><path
       style="fill:none;fill-opacity:1;stroke:none;stroke-width:0.529167;stroke-dasharray:none;stroke-opacity:1;paint-order:stroke fill markers;stop-color:#000000"
       d="M 96.576498,102.59932 C 53.211466,132.14563 67.590542,146.24302 159.9929,96.373359"
       id="path15028"
       sodipodi:nodetypes="cc" /></g><g
     aria-label="   The                 of   Ficus   Caricature"
     id="text16505"
     style="font-size:8.46667px;line-height:1;font-family:'MS PGothic';-inkscape-font-specification:'MS PGothic';text-align:end;word-spacing:0px;text-anchor:end;fill:#ffffff;stroke:#207c3a;stroke-width:0.79375;paint-order:stroke fill markers"><path
       d="m 89.110406,112.54995 -0.850385,-1.00449 0.124549,-0.0957 q 0.247697,0.2476 0.400676,0.31772 0.24774,0.112 0.486204,0.0695 0.237706,-0.0367 0.513025,-0.24837 l 0.626023,-0.48124 -2.610268,-3.3956 q -0.314946,-0.4097 -0.481548,-0.44328 -0.23037,-0.0419 -0.489301,0.15713 l -0.154048,0.11842 -0.09322,-0.12127 1.884625,-1.44875 0.09322,0.12127 -0.157326,0.12094 q -0.281874,0.21668 -0.268851,0.47782 0.0085,0.16032 0.295749,0.53396 l 2.610269,3.39561 0.53425,-0.41069 q 0.311373,-0.23936 0.407203,-0.38603 0.122564,-0.19329 0.107779,-0.46351 -0.01479,-0.27021 -0.223642,-0.58939 l 0.12455,-0.0957 0.748779,1.08259 z"
       style="letter-spacing:0px"
       id="path1148" /><path
       d="m 88.104764,113.71017 -1.741366,-2.15401 q -0.03977,0.68072 -0.160377,0.95896 -0.118004,0.28147 -0.326976,0.4504 -0.250765,0.20273 -0.542561,0.21003 -0.291796,0.007 -0.617712,-0.21829 -0.227423,-0.15637 -0.669262,-0.70291 l -0.842094,-1.04164 q -0.226117,-0.2797 -0.354296,-0.3462 -0.09453,-0.0512 -0.208072,-0.0338 -0.113546,0.0174 -0.319302,0.18371 l -0.09357,-0.11574 1.446723,-1.16957 0.09357,0.11574 -0.06751,0.0546 q -0.205757,0.16634 -0.236748,0.2924 -0.02839,0.12927 0.03822,0.27743 0.03194,0.0592 0.234666,0.31 l 0.842094,1.04164 q 0.389858,0.48224 0.563452,0.59176 0.17038,0.11212 0.339466,0.0977 0.171685,-0.0112 0.326002,-0.13596 0.157532,-0.12735 0.260349,-0.34869 0.102816,-0.22134 0.135397,-0.66765 l -1.257942,-1.55603 q -0.244311,-0.30221 -0.336239,-0.35016 -0.09514,-0.0453 -0.226746,-0.024 -0.132219,0.0272 -0.357265,0.20908 l -0.09356,-0.11573 1.459582,-1.17997 0.09357,0.11573 q -0.196111,0.15855 -0.259252,0.3106 -0.03831,0.0841 -0.0041,0.20533 0.03419,0.12121 0.257713,0.3977 l 2.154615,2.66518 q 0.408051,0.50475 0.527337,0.59969 0.11607,0.0975 0.201297,0.0978 0.08201,0.003 0.1656,-0.0648 0.06751,-0.0546 0.177031,-0.22818 l 0.135976,0.0761 -0.589799,1.07221 z"
       style="letter-spacing:0px"
       id="path1150" /><path
       d="m 83.033935,113.31533 q -0.544482,-0.64406 -1.170277,-0.74032 -0.625794,-0.0963 -1.050233,0.26614 -0.282959,0.2416 -0.358925,0.57283 -0.07643,0.33706 0.104228,0.83513 l -0.151153,0.0203 q -0.301744,-0.4871 -0.287543,-1.1135 0.01689,-0.62325 0.494772,-1.03129 0.518758,-0.44293 1.233358,-0.35726 0.71414,0.0915 1.296664,0.77374 0.630845,0.73883 0.605228,1.47283 -0.02608,0.73982 -0.598283,1.22839 -0.484175,0.41341 -1.069243,0.35848 -0.582384,-0.0518 -1.03874,-0.58626 z m 0.155698,0.18235 -1.333053,1.1382 q 0.251951,0.26325 0.398895,0.33348 0.228929,0.10896 0.472031,0.0753 0.239957,-0.0309 0.409733,-0.17589 0.260951,-0.22281 0.293966,-0.60434 0.03255,-0.3757 -0.241572,-0.76679 z"
       style="letter-spacing:0px"
       id="path1152" /><path
       d="m 86.864896,124.43529 q 0.841713,-0.1759 1.485212,0.35693 0.547163,0.45581 0.695155,1.16399 0.104017,0.49774 -0.02818,1.05752 -0.132201,0.55978 -0.498934,0.90671 -0.362687,0.3461 -0.876618,0.4535 -0.837666,0.17505 -1.470899,-0.38948 -0.534358,-0.47539 -0.680659,-1.17547 -0.106554,-0.50988 0.03948,-1.0641 0.149233,-0.55912 0.512101,-0.88413 0.362023,-0.32906 0.823347,-0.42547 z m -0.07048,0.28925 q -0.214475,0.0448 -0.405936,0.21998 -0.188259,0.17027 -0.254992,0.51787 -0.06673,0.34759 0.03813,0.84939 0.169135,0.80933 0.611446,1.3293 0.446358,0.51912 0.972429,0.40918 0.392529,-0.082 0.579817,-0.45904 0.187289,-0.37702 0.02238,-1.16612 -0.206344,-0.9874 -0.749641,-1.46514 -0.3685,-0.32844 -0.813636,-0.23542 z"
       style="font-family:'Times New Roman';-inkscape-font-specification:'Times New Roman, ';text-align:start;text-anchor:start"
       id="path1154" /><path
       d="m 90.623597,124.00836 0.575767,2.42122 q 0.122422,0.51481 0.267556,0.62478 0.190895,0.14157 0.440256,0.0823 l 0.333823,-0.0794 0.03443,0.14479 -2.200012,0.52317 -0.03443,-0.14479 0.164901,-0.0392 q 0.160878,-0.0383 0.274475,-0.15025 0.113596,-0.11201 0.129341,-0.26023 0.01977,-0.14918 -0.07396,-0.54333 l -0.575767,-2.42122 -0.715909,0.17024 -0.06886,-0.28958 0.715909,-0.17024 -0.05739,-0.24132 q -0.13103,-0.55101 -0.04492,-0.97518 0.08611,-0.42417 0.39261,-0.74352 0.309569,-0.32433 0.764051,-0.43241 0.422306,-0.10042 0.841275,0.0889 0.276313,0.12551 0.329873,0.35074 0.02869,0.12066 -0.05006,0.25412 -0.0797,0.12944 -0.200363,0.15813 -0.09251,0.022 -0.212379,-0.0175 -0.116808,-0.0445 -0.317267,-0.22627 -0.201416,-0.18582 -0.344269,-0.23258 -0.142853,-0.0468 -0.295687,-0.0104 -0.185011,0.044 -0.289803,0.17515 -0.105748,0.12714 -0.112322,0.34967 -0.0075,0.21851 0.197145,1.07921 l 0.06312,0.26545 0.949183,-0.22572 0.06886,0.28958 z"
       style="font-family:'Times New Roman';-inkscape-font-specification:'Times New Roman, ';text-align:start;text-anchor:start"
       id="path1156" /><path
       d="m 98.724766,119.93377 0.640717,2.10828 0.977007,-0.29692 q 0.33622,-0.10218 0.446,-0.29542 0.11254,-0.19839 0.0305,-0.65307 l 0.14635,-0.0445 0.55177,1.81557 -0.14636,0.0445 q -0.0989,-0.31128 -0.22251,-0.43359 -0.11963,-0.12351 -0.27971,-0.15264 -0.15732,-0.0343 -0.4263,0.0475 l -0.977002,0.29692 0.512093,1.68504 q 0.123819,0.40741 0.214909,0.52232 0.0696,0.0869 0.21782,0.1196 0.20289,0.042 0.39275,-0.0157 l 0.19382,-0.0589 0.0445,0.14635 -2.302094,0.69963 -0.04448,-0.14636 0.189863,-0.0577 q 0.332261,-0.10097 0.423667,-0.34047 0.05646,-0.15543 -0.09019,-0.638 l -1.053037,-3.46501 q -0.123816,-0.40741 -0.214906,-0.52231 -0.06961,-0.0869 -0.213866,-0.1208 -0.198936,-0.0433 -0.392755,0.0157 l -0.189863,0.0577 -0.04448,-0.14636 3.991088,-1.21291 0.40965,1.16311 -0.13845,0.0421 q -0.21704,-0.34452 -0.40837,-0.47648 -0.18858,-0.13713 -0.41436,-0.15493 -0.22181,-0.019 -0.641094,0.10841 z"
       style="font-family:'Times New Roman';-inkscape-font-specification:'Times New Roman, ';text-align:start;text-anchor:start"
       id="path1158" /><path
       d="m 102.46784,118.15715 q 0.16518,-0.0535 0.31745,0.0275 0.15494,0.0758 0.20844,0.24102 0.0535,0.16519 -0.0263,0.32139 -0.0758,0.15493 -0.24102,0.20844 -0.16518,0.0535 -0.32139,-0.0263 -0.1562,-0.0798 -0.20971,-0.24495 -0.0535,-0.16519 0.0236,-0.31619 0.0798,-0.1562 0.24889,-0.21098 z m 0.93663,1.77815 0.9376,2.89465 q 0.10956,0.33823 0.1937,0.437 0.0868,0.0936 0.19902,0.11805 0.11616,0.0232 0.3718,-0.0596 l 0.0459,0.14158 -1.75016,0.56689 -0.0459,-0.14158 q 0.26351,-0.0854 0.3374,-0.16578 0.0739,-0.0804 0.0868,-0.21498 0.0168,-0.13583 -0.0914,-0.47013 l -0.44969,-1.38833 q -0.18981,-0.58601 -0.28126,-0.74759 -0.0683,-0.11694 -0.14258,-0.14502 -0.0755,-0.032 -0.17781,0.001 -0.11012,0.0357 -0.24833,0.14562 l -0.10092,-0.12375 0.94281,-0.79209 z"
       style="font-family:'Times New Roman';-inkscape-font-specification:'Times New Roman, ';text-align:start;text-anchor:start"
       id="path1160" /><path
       d="m 108.18319,120.9243 q 0.0963,0.75766 -0.19588,1.28505 -0.29349,0.52347 -0.80618,0.69795 -0.61054,0.20777 -1.239,-0.15042 -0.62847,-0.35819 -0.92548,-1.23095 -0.28769,-0.84535 0.0335,-1.54418 0.32506,-0.70017 1.02953,-0.93991 0.52835,-0.1798 0.96473,-0.0139 0.43506,0.16199 0.53761,0.46335 0.0506,0.14872 -0.0153,0.27594 -0.0633,0.12198 -0.2355,0.18059 -0.2309,0.0786 -0.39893,-0.0302 -0.0945,-0.0596 -0.19656,-0.28247 -0.0982,-0.22424 -0.27642,-0.29895 -0.17694,-0.0708 -0.41959,0.0118 -0.39137,0.13319 -0.53154,0.50405 -0.18648,0.49142 0.0279,1.12153 0.21843,0.64184 0.69935,1.02842 0.48349,0.38133 1.01967,0.19886 0.38354,-0.13053 0.59957,-0.49664 0.15399,-0.25328 0.19634,-0.79609 z"
       style="font-family:'Times New Roman';-inkscape-font-specification:'Times New Roman, ';text-align:start;text-anchor:start"
       id="path1162" /><path
       d="m 110.99576,117.41959 0.77899,2.15814 q 0.22317,0.61828 0.30092,0.74845 0.0802,0.12487 0.1621,0.15685 0.0858,0.0306 0.1713,-3e-4 0.12055,-0.0435 0.24834,-0.16436 l 0.10357,0.11645 -0.90686,0.82399 -0.17499,0.0632 -0.27229,-0.75438 q -0.27919,0.66336 -0.47397,0.87871 -0.19477,0.21534 -0.46308,0.31219 -0.29942,0.10807 -0.58282,0.017 -0.28092,-0.0964 -0.46472,-0.3377 -0.1838,-0.24132 -0.36346,-0.73906 l -0.57407,-1.59042 q -0.0912,-0.25275 -0.18076,-0.33032 -0.0895,-0.0776 -0.21665,-0.0888 -0.12465,-0.0165 -0.40322,0.0884 l -0.0519,-0.14387 1.24823,-0.45056 0.86039,2.38369 q 0.17966,0.49774 0.4069,0.59152 0.23113,0.0924 0.47611,0.004 0.16721,-0.0603 0.33929,-0.24113 0.17598,-0.18219 0.36094,-0.58299 l -0.72846,-2.01816 q -0.10947,-0.30331 -0.26014,-0.3676 -0.14818,-0.0696 -0.50096,0.049 l -0.0519,-0.14388 z"
       style="font-family:'Times New Roman';-inkscape-font-specification:'Times New Roman, ';text-align:start;text-anchor:start"
       id="path1164" /><path
       d="m 114.04044,116.15041 0.4579,1.20583 -0.12754,0.0484 q -0.3626,-0.51237 -0.67228,-0.62914 -0.30581,-0.11825 -0.66137,0.0168 -0.27054,0.10273 -0.38243,0.30884 -0.11188,0.20611 -0.0458,0.38003 0.0822,0.21643 0.26457,0.32406 0.17998,0.11296 0.61465,0.15132 l 0.66847,0.0601 q 0.92985,0.0847 1.16761,0.71079 0.18345,0.48311 -0.0707,0.92013 -0.25176,0.43168 -0.70394,0.60339 -0.32465,0.12328 -0.78608,0.16584 -0.14222,0.01 -0.22338,0.0406 -0.0889,0.0338 -0.10097,0.15332 l -0.12754,0.0484 -0.47992,-1.26381 0.12754,-0.0484 q 0.31369,0.49999 0.72321,0.65845 0.40952,0.15846 0.78828,0.0146 0.26667,-0.10127 0.37416,-0.31897 0.10988,-0.22303 0.0262,-0.44333 -0.10127,-0.26667 -0.35962,-0.3764 -0.25449,-0.11121 -0.92056,-0.17667 -0.66607,-0.0655 -0.92511,-0.22358 -0.25758,-0.15425 -0.38526,-0.49049 -0.16584,-0.43673 0.0202,-0.84347 0.18992,-0.4082 0.6653,-0.58872 0.2087,-0.0793 0.54005,-0.10336 0.21912,-0.0169 0.28482,-0.0418 0.0618,-0.0235 0.0863,-0.0637 0.0245,-0.0403 0.0357,-0.15063 z"
       style="font-family:'Times New Roman';-inkscape-font-specification:'Times New Roman, ';text-align:start;text-anchor:start"
       id="path1166" /><path
       d="m 124.27467,109.9381 0.87259,1.69917 -0.11768,0.0508 q -0.57432,-0.68423 -1.15987,-0.84134 -0.58556,-0.15712 -1.19671,0.10653 -0.51245,0.22107 -0.81322,0.66149 -0.3024,0.43662 -0.29592,1.10918 0.0103,0.67092 0.37546,1.51742 0.30132,0.69846 0.74635,1.11429 0.44503,0.41584 1.01086,0.49592 0.56962,0.0784 1.14661,-0.17047 0.50106,-0.21616 0.79275,-0.59413 0.29005,-0.38176 0.47426,-1.21762 l 0.15042,0.0252 q -0.0908,0.8541 -0.46948,1.39567 -0.3787,0.54157 -1.08854,0.84779 -1.27924,0.55186 -2.39089,-0.0942 -0.82842,-0.48007 -1.24109,-1.43665 -0.33242,-0.77058 -0.26538,-1.56491 0.0671,-0.79433 0.51831,-1.40773 0.45343,-0.61883 1.17086,-0.92833 0.55801,-0.24072 1.21874,-0.20158 0.19545,0.0147 0.26378,-0.0147 0.10249,-0.0442 0.1473,-0.14909 0.0545,-0.14507 0.0176,-0.34529 z"
       style="font-family:'Times New Roman';-inkscape-font-specification:'Times New Roman, ';text-align:start;text-anchor:start"
       id="path1168" /><path
       d="m 129.01722,113.48499 q -0.34487,0.65108 -0.45141,0.77654 -0.16066,0.1863 -0.39034,0.29041 -0.35771,0.16215 -0.7021,0.0232 -0.34063,-0.14063 -0.52155,-0.53976 -0.11435,-0.25228 -0.085,-0.48798 0.0383,-0.32603 0.31621,-0.72433 0.28165,-0.40001 1.02349,-1.12663 l -0.0614,-0.13556 q -0.23383,-0.51585 -0.48655,-0.63278 -0.24896,-0.11864 -0.56148,0.023 -0.23722,0.10753 -0.31851,0.2987 -0.085,0.19288 -0.01,0.35855 l 0.10652,0.21498 q 0.0785,0.17321 0.0308,0.3083 -0.0439,0.13339 -0.18702,0.19825 -0.13932,0.0631 -0.27406,0.006 -0.13098,-0.0587 -0.20779,-0.22809 -0.14678,-0.32382 0.0617,-0.74512 0.20846,-0.4213 0.80715,-0.69268 0.45937,-0.20823 0.82305,-0.18698 0.27506,0.016 0.49314,0.21675 0.14117,0.13119 0.36817,0.63198 l 0.53081,1.17102 q 0.22359,0.49326 0.29362,0.59769 0.0683,0.10066 0.12681,0.11954 0.0623,0.0172 0.11873,-0.008 0.0602,-0.0273 0.0935,-0.0742 0.0569,-0.0848 0.18039,-0.41312 l 0.0956,0.21086 q -0.1657,0.75596 -0.54976,0.93005 -0.1845,0.0836 -0.35173,0.005 -0.16722,-0.0785 -0.31095,-0.38558 z m -0.11094,-0.24474 -0.59567,-1.31411 q -0.46615,0.48365 -0.58916,0.65288 -0.22236,0.30051 -0.26846,0.53928 -0.0461,0.23876 0.0512,0.45339 0.12289,0.2711 0.36673,0.37845 0.24212,0.10358 0.45298,0.008 0.28617,-0.12972 0.58239,-0.71789 z"
       style="font-family:'Times New Roman';-inkscape-font-specification:'Times New Roman, ';text-align:start;text-anchor:start"
       id="path1170" /><path
       d="m 130.05798,109.31023 0.36129,0.7712 q 0.0692,-0.97289 0.52221,-1.1851 0.2059,-0.0965 0.40031,-0.0323 0.19265,0.0604 0.26981,0.22512 0.0684,0.14601 0.0184,0.29268 -0.05,0.14668 -0.18475,0.20982 -0.13103,0.0614 -0.35538,0.0113 -0.22236,-0.0556 -0.30098,-0.0188 -0.0674,0.0316 -0.11092,0.14327 -0.0966,0.23241 -0.11139,0.6685 l 0.76993,1.64347 q 0.1333,0.28451 0.27283,0.39719 0.096,0.0783 0.25113,0.0878 0.15511,0.01 0.38721,-0.0992 l 0.0631,0.13477 -1.75577,0.82256 -0.0631,-0.13477 q 0.26206,-0.12277 0.35075,-0.26476 0.0655,-0.10375 0.0416,-0.25232 -0.0111,-0.0724 -0.15141,-0.3719 l -0.62261,-1.329 q -0.28062,-0.59898 -0.35944,-0.69901 -0.0768,-0.10553 -0.16877,-0.12638 -0.0882,-0.0226 -0.18553,0.023 -0.11605,0.0544 -0.23575,0.17892 l -0.10057,-0.11723 0.84056,-0.90511 z"
       style="font-family:'Times New Roman';-inkscape-font-specification:'Times New Roman, ';text-align:start;text-anchor:start"
       id="path1172" /><path
       d="m 131.58265,106.395 q 0.15651,-0.0752 0.31828,-0.0153 0.1637,0.0544 0.23889,0.21087 0.0752,0.15651 0.0171,0.32201 -0.0544,0.16371 -0.21087,0.2389 -0.15651,0.0752 -0.322,0.0171 -0.1655,-0.0581 -0.24069,-0.2146 -0.0752,-0.15651 -0.019,-0.31649 0.0581,-0.1655 0.21833,-0.24247 z m 1.16679,1.63636 1.31757,2.74264 q 0.15396,0.32047 0.25059,0.40706 0.0986,0.0811 0.21307,0.0903 0.11822,0.007 0.36044,-0.10895 l 0.0644,0.13415 -1.65825,0.79664 -0.0644,-0.13416 q 0.24967,-0.11994 0.31211,-0.20956 0.0624,-0.0896 0.0572,-0.22468 -0.002,-0.13685 -0.1537,-0.4536 l -0.63194,-1.31542 q -0.26673,-0.55524 -0.37904,-0.70309 -0.0834,-0.10671 -0.16075,-0.12458 -0.0792,-0.0216 -0.17605,0.025 -0.10434,0.0501 -0.22655,0.17763 l -0.11661,-0.10909 0.82799,-0.91145 z"
       style="font-family:'Times New Roman';-inkscape-font-specification:'Times New Roman, ';text-align:start;text-anchor:start"
       id="path1174" /><path
       d="m 137.62714,108.37758 q 0.19456,0.73855 -0.0261,1.29963 -0.22248,0.55737 -0.70795,0.79742 -0.5781,0.28586 -1.24803,0.013 -0.66992,-0.2729 -1.07856,-1.0993 -0.3958,-0.80045 -0.16884,-1.53529 0.23067,-0.73667 0.89772,-1.06651 0.50028,-0.24738 0.95462,-0.13998 0.45251,0.10369 0.59361,0.38903 0.0696,0.14082 0.021,0.27558 -0.0468,0.12921 -0.20985,0.20984 -0.21864,0.10811 -0.39945,0.0223 -0.10148,-0.0467 -0.23183,-0.25432 -0.12664,-0.20948 -0.31315,-0.26022 -0.18468,-0.047 -0.41444,0.0666 -0.37058,0.18324 -0.46104,0.56925 -0.12059,0.5116 0.17443,1.10824 0.30053,0.60775 0.82788,0.92809 0.52922,0.3148 1.03692,0.0637 0.36317,-0.17958 0.52945,-0.5708 0.11953,-0.27125 0.0905,-0.81494 z"
       style="font-family:'Times New Roman';-inkscape-font-specification:'Times New Roman, ';text-align:start;text-anchor:start"
       id="path1176" /><path
       d="m 140.40985,107.96051 q -0.31358,0.66672 -0.41405,0.79709 -0.15163,0.19371 -0.37612,0.30861 -0.34961,0.17894 -0.70021,0.0565 -0.34691,-0.12431 -0.54657,-0.5144 -0.1262,-0.24656 -0.10809,-0.4834 0.0228,-0.32747 0.28148,-0.73851 0.26235,-0.41293 0.96887,-1.17394 l -0.0678,-0.13249 q -0.25804,-0.50417 -0.51603,-0.60898 -0.25431,-0.10669 -0.55975,0.0496 -0.23185,0.11866 -0.30397,0.31348 -0.0758,0.19669 0.007,0.35862 l 0.11661,0.20968 q 0.0866,0.16928 0.0454,0.30649 -0.0376,0.13532 -0.1774,0.2069 -0.13616,0.0697 -0.27346,0.0192 -0.13361,-0.0524 -0.21837,-0.21796 -0.16199,-0.31649 0.0262,-0.74721 0.18824,-0.43072 0.77337,-0.73021 0.44897,-0.22979 0.81325,-0.22582 0.27551,0.003 0.50287,0.1931 0.14724,0.12434 0.39775,0.61379 l 0.58579,1.14451 q 0.24674,0.48209 0.32165,0.58308 0.073,0.0973 0.13234,0.11338 0.063,0.0142 0.1182,-0.014 0.0589,-0.0301 0.0899,-0.0785 0.0528,-0.0874 0.16058,-0.42122 l 0.10548,0.20609 q -0.12963,0.76297 -0.505,0.9551 -0.18033,0.0923 -0.35109,0.0218 -0.17077,-0.0705 -0.3289,-0.37039 z m -0.12243,-0.2392 -0.65736,-1.28436 q -0.44268,0.50523 -0.55752,0.68011 -0.20785,0.31072 -0.24256,0.55141 -0.0347,0.24068 0.0726,0.45045 0.13562,0.26497 0.38427,0.36062 0.24677,0.092 0.45286,-0.0135 0.27968,-0.14315 0.54766,-0.74472 z"
       style="font-family:'Times New Roman';-inkscape-font-specification:'Times New Roman, ';text-align:start;text-anchor:start"
       id="path1178" /><path
       d="m 140.72104,102.74116 0.57927,1.10131 0.78299,-0.41184 0.13472,0.25612 -0.783,0.41184 1.14315,2.17337 q 0.17128,0.32564 0.32241,0.39095 0.15479,0.0634 0.30114,-0.0136 0.12074,-0.0635 0.19568,-0.19635 0.073,-0.13649 0.0582,-0.31556 l 0.14269,-0.0751 q 0.0605,0.42593 -0.0774,0.73204 -0.13987,0.30245 -0.38867,0.43331 -0.16831,0.0885 -0.37741,0.0817 -0.21102,-0.0105 -0.37831,-0.14201 -0.16921,-0.13521 -0.35974,-0.49744 l -1.18548,-2.25386 -0.53054,0.27905 -0.0635,-0.12074 q 0.15889,-0.18634 0.26738,-0.4863 0.11021,-0.30554 0.1363,-0.65558 0.011,-0.1833 -0.0333,-0.63174 z"
       style="font-family:'Times New Roman';-inkscape-font-specification:'Times New Roman, ';text-align:start;text-anchor:start"
       id="path1180" /><path
       d="m 145.29032,101.7021 1.09224,2.01778 q 0.31291,0.57807 0.40921,0.69518 0.098,0.1115 0.18369,0.13091 0.0893,0.0174 0.16934,-0.0258 0.1127,-0.061 0.22104,-0.19957 l 0.11978,0.0997 -0.77379,0.95006 -0.1636,0.0886 -0.38179,-0.70532 q -0.1771,0.69759 -0.33757,0.93958 -0.16047,0.24199 -0.41133,0.37778 -0.27994,0.15154 -0.57376,0.10375 -0.29216,-0.0534 -0.5099,-0.2646 -0.21775,-0.2112 -0.46965,-0.67656 l -0.80491,-1.48698 q -0.12792,-0.23632 -0.22802,-0.29966 -0.1001,-0.0633 -0.22748,-0.0555 -0.12571,0.002 -0.38551,0.14756 l -0.0728,-0.13452 1.16704,-0.63172 1.20638,2.22865 q 0.25191,0.46536 0.4906,0.5242 0.24232,0.0569 0.47136,-0.0671 0.15634,-0.0846 0.29953,-0.28906 0.14682,-0.2064 0.26993,-0.63031 l -1.02139,-1.8869 q -0.15351,-0.28358 -0.31208,-0.32467 -0.1569,-0.0467 -0.48804,0.12315 l -0.0728,-0.13452 z"
       style="font-family:'Times New Roman';-inkscape-font-specification:'Times New Roman, ';text-align:start;text-anchor:start"
       id="path1182" /><path
       d="m 146.96076,100.64634 0.41489,0.74373 q 3e-4,-0.97534 0.43715,-1.21904 0.19857,-0.11077 0.39702,-0.0605 0.19644,0.0466 0.28505,0.20549 0.0786,0.14081 0.0391,0.29065 -0.0395,0.14985 -0.16946,0.22235 -0.12637,0.0705 -0.3537,0.0364 -0.22573,-0.0398 -0.30155,0.003 -0.065,0.0362 -0.10053,0.15075 -0.0799,0.23866 -0.0639,0.6747 l 0.88415,1.58495 q 0.15307,0.27439 0.30021,0.37693 0.10131,0.0713 0.25671,0.0698 0.15539,-0.001 0.37923,-0.12635 l 0.0725,0.12998 -1.69326,0.94457 -0.0725,-0.12998 q 0.25272,-0.14098 0.33116,-0.28888 0.058,-0.10812 0.0237,-0.25462 -0.0162,-0.0714 -0.1773,-0.36027 l -0.71498,-1.28168 q -0.32224,-0.57766 -0.40793,-0.67187 -0.0841,-0.0998 -0.17728,-0.11413 -0.0896,-0.0163 -0.18344,0.0361 -0.11192,0.0624 -0.22252,0.19513 l -0.10861,-0.10983 0.7745,-0.96224 z"
       style="font-family:'Times New Roman';-inkscape-font-specification:'Times New Roman, ';text-align:start;text-anchor:start"
       id="path1184" /><path
       d="m 149.73249,100.85232 q 0.41592,0.73368 1.0131,0.94406 0.59718,0.21038 1.08135,-0.0672 0.32277,-0.18507 0.45871,-0.49653 0.13747,-0.3171 0.0521,-0.84 l 0.1523,0.008 q 0.20641,0.53452 0.0766,1.14748 -0.13191,0.60937 -0.67704,0.92194 -0.59175,0.3393 -1.27816,0.1229 -0.68489,-0.22205 -1.13112,-1.00029 -0.48326,-0.8428 -0.32228,-1.55939 0.16251,-0.722223 0.81524,-1.096486 0.5523,-0.316685 1.1171,-0.154456 0.56275,0.158642 0.91234,0.768328 z m -0.11927,-0.20801 1.52063,-0.871909 q -0.19889,-0.30532 -0.3303,-0.401528 -0.20482,-0.149427 -0.44995,-0.161372 -0.24153,-0.014 -0.4352,0.09704 -0.29767,0.17068 -0.4007,0.539517 -0.10151,0.363198 0.0955,0.798248 z"
       style="font-family:'Times New Roman';-inkscape-font-specification:'Times New Roman, ';text-align:start;text-anchor:start"
       id="path1186" /></g><path
     style="fill:none;fill-opacity:1;stroke:none;stroke-width:0.79375;stroke-dasharray:none;stroke-opacity:1;paint-order:stroke fill markers;stop-color:#000000"
     d="m 94.588538,101.4677 c -24.575879,17.60595 -28.535086,25.79822 -24.417189,27.79657 7.268011,3.52704 56.452031,-6.61333 106.967181,-43.27469"
     id="path16509"
     sodipodi:nodetypes="csc" /><g
     id="text16763"
     style="font-size:4.23333px;line-height:1;font-family:'MS PGothic';-inkscape-font-specification:'MS PGothic';word-spacing:0px;stroke-width:0.264583" /><g
     aria-label="L"
     transform="rotate(139.6253)"
     id="text16767"
     style="font-size:8.46667px;line-height:1;font-family:'MS PGothic';-inkscape-font-specification:'MS PGothic';text-align:end;word-spacing:0px;text-anchor:end;stroke-width:0.79375;paint-order:stroke fill markers"><path
       d="m 23.095636,-139.59674 0.136426,0.0289 -0.479557,1.52135 h -4.340822 v -0.15296 h 0.21084 q 0.355534,0 0.508496,-0.23151 0.08682,-0.13229 0.08682,-0.61185 v -3.61735 q 0,-0.52503 -0.115755,-0.65733 -0.16123,-0.1819 -0.479557,-0.1819 h -0.21084 v -0.15296 h 2.538347 v 0.15296 q -0.446485,-0.004 -0.628386,0.0827 -0.177767,0.0868 -0.243912,0.2191 -0.06615,0.1323 -0.06615,0.63252 v 3.52227 q 0,0.34313 0.06615,0.47129 0.04961,0.0868 0.152962,0.12816 0.103353,0.0413 0.644922,0.0413 h 0.409277 q 0.644923,0 0.905372,-0.0951 0.260449,-0.0951 0.475423,-0.33486 0.214974,-0.24391 0.429948,-0.76481 z"
       style="font-family:'Times New Roman';-inkscape-font-specification:'Times New Roman, ';fill:#ffffff;stroke:#207c3a"
       id="path1144" /></g><g
     aria-label="e"
     transform="rotate(90.981547)"
     id="text16767-3"
     style="font-size:8.46667px;line-height:1;font-family:'MS PGothic';-inkscape-font-specification:'MS PGothic';text-align:end;word-spacing:0px;text-anchor:end;stroke-width:0.79375;paint-order:stroke fill markers"><path
       d="m 121.56431,-73.756851 q -0.004,0.84336 0.40928,1.322917 0.41341,0.479558 0.97151,0.479558 0.37207,0 0.64492,-0.202572 0.27699,-0.206706 0.46303,-0.7028 l 0.12815,0.08268 q -0.0868,0.566374 -0.50436,1.033529 -0.41754,0.463022 -1.04593,0.463022 -0.68213,0 -1.16995,-0.529167 -0.4837,-0.533301 -0.4837,-1.430405 0,-0.971517 0.4961,-1.513086 0.50023,-0.545703 1.25263,-0.545703 0.63666,0 1.04594,0.421679 0.40927,0.417546 0.40927,1.120346 z m 0,-0.239779 h 1.75286 q -0.0207,-0.363802 -0.0868,-0.51263 -0.10336,-0.231511 -0.31006,-0.363803 -0.20257,-0.132291 -0.42582,-0.132291 -0.34313,0 -0.61598,0.268717 -0.26872,0.264584 -0.31419,0.740007 z"
       style="font-family:'Times New Roman';-inkscape-font-specification:'Times New Roman, ';fill:#ffffff;stroke:#207c3a"
       id="path1141" /></g><g
     aria-label="a"
     transform="rotate(51.821023)"
     id="text16767-2"
     style="font-size:8.46667px;line-height:1;font-family:'MS PGothic';-inkscape-font-specification:'MS PGothic';text-align:end;word-spacing:0px;text-anchor:end;stroke-width:0.79375;paint-order:stroke fill markers"><path
       d="m 145.59407,24.102969 q -0.58291,0.450618 -0.73174,0.520898 -0.22325,0.103353 -0.47543,0.103353 -0.39274,0 -0.64905,-0.268717 -0.25218,-0.268718 -0.25218,-0.706934 0,-0.276986 0.12402,-0.479558 0.1695,-0.28112 0.58704,-0.529166 0.42168,-0.248047 1.39734,-0.603581 v -0.148829 q 0,-0.566374 -0.18191,-0.777213 -0.17776,-0.21084 -0.52089,-0.21084 -0.26045,0 -0.41342,0.14056 -0.15709,0.140559 -0.15709,0.322461 l 0.008,0.239778 q 0,0.19017 -0.0992,0.293523 -0.0951,0.103353 -0.25218,0.103353 -0.15297,0 -0.25218,-0.107488 -0.0951,-0.107487 -0.0951,-0.293522 0,-0.355534 0.3638,-0.65319 0.36381,-0.297656 1.02113,-0.297656 0.50436,0 0.82682,0.169498 0.24392,0.128158 0.35967,0.40101 0.0744,0.177767 0.0744,0.727604 v 1.28571 q 0,0.541569 0.0207,0.665593 0.0207,0.119889 0.0661,0.16123 0.0496,0.04134 0.11162,0.04134 0.0662,0 0.11576,-0.02894 0.0868,-0.05374 0.33486,-0.301791 v 0.231511 q -0.46302,0.620117 -0.8847,0.620117 -0.20257,0 -0.32246,-0.14056 -0.11989,-0.14056 -0.12402,-0.479557 z m 0,-0.268718 v -1.442806 q -0.62426,0.248047 -0.80616,0.3514 -0.32659,0.181901 -0.46715,0.380338 -0.14056,0.198438 -0.14056,0.434082 0,0.297657 0.17777,0.496094 0.17776,0.194304 0.40927,0.194304 0.3142,0 0.82683,-0.413412 z"
       style="font-family:'Times New Roman';-inkscape-font-specification:'Times New Roman, ';fill:#ffffff;stroke:#207c3a"
       id="path1138" /></g><g
     aria-label="f"
     transform="rotate(3.6464123)"
     id="text16767-8"
     style="font-size:8.46667px;line-height:1;font-family:'MS PGothic';-inkscape-font-specification:'MS PGothic';text-align:end;word-spacing:0px;text-anchor:end;stroke-width:0.79375;paint-order:stroke fill markers"><path
       d="m 84.173047,121.92783 v 2.48874 q 0,0.52916 0.115755,0.66972 0.152963,0.1819 0.409278,0.1819 h 0.343131 v 0.14883 H 82.77985 v -0.14883 h 0.169499 q 0.165364,0 0.30179,-0.0827 0.136426,-0.0827 0.186035,-0.22324 0.05374,-0.14056 0.05374,-0.5457 v -2.48874 h -0.735873 v -0.29766 h 0.735873 v -0.24804 q 0,-0.56638 0.181901,-0.95912 0.181901,-0.39274 0.553971,-0.63252 0.376205,-0.24391 0.84336,-0.24391 0.434082,0 0.797885,0.28112 0.239778,0.18603 0.239778,0.41754 0,0.12403 -0.107487,0.23565 -0.107487,0.10748 -0.23151,0.10748 -0.09508,0 -0.202572,-0.0661 -0.103353,-0.0703 -0.256315,-0.29352 -0.152962,-0.22738 -0.28112,-0.30593 -0.128158,-0.0786 -0.285254,-0.0786 -0.190169,0 -0.322461,0.10336 -0.132292,0.0992 -0.190169,0.31419 -0.05788,0.21084 -0.05788,1.09554 v 0.27285 h 0.975651 v 0.29766 z"
       style="font-family:'Times New Roman';-inkscape-font-specification:'Times New Roman, ';fill:#ffffff;stroke:#207c3a"
       id="path1135" /></g></svg>
